<?xml version="1.0" encoding="utf-8"?>
<!-- Generator: Adobe Illustrator 25.0.0, SVG Export Plug-In . SVG Version: 6.00 Build 0)  -->
<svg version="1.0" id="Layer_1" xmlns="http://www.w3.org/2000/svg" xmlns:xlink="http://www.w3.org/1999/xlink" x="0px" y="0px"
	 viewBox="0 0 566.9 566.9" style="enable-background:new 0 0 566.9 566.9;" xml:space="preserve">
<g>
	<path d="M545.2,269.4c-2.1,8.6-4.2,17.3-6.5,26.5c-14.2-2.9-28.8-6.2-40.8,3.5c-6.2,5-11.2,12.9-13.9,20.5
		c-6.3,17.9,0.4,34.8,15.3,43.3c17.7,10.1,35.7,6.7,51-10.1c4.4,2.5,9,5.1,13.6,7.7c-9.3,24.7-20.6,47.2-41.4,64.1
		c-40.4,32.7-99.8,20.7-123.5-25.4c-1.4-2.7-2.7-5.5-4.6-9.5C380,454.9,344,490.9,274.8,482.8c3.5,0,7,0.1,10.5,0
		c3.6-0.2,7.2-0.6,10.7-1c42.7-4.5,68.6-29.1,79.7-69.4c11.5-41.8,6.5-81.6-20.2-117c-19.6-25.9-45.7-41.6-78.3-45.6
		c-1-0.1-1.9-0.5-3.5-0.9c1.4-9,2.8-17.7,4.5-28.3c11,3.4,21.4,5.8,31.2,9.9c53.1,21.9,86.6,73.8,86.5,133.3
		c0,29.2,20.5,57.2,48.9,65.6c37.8,11.2,73-6.5,90.4-43.5c-29,5.7-53.4-0.8-69.3-27.2c-12.7-21.2-8.8-51.7,8.1-72.2
		C489.2,268.2,518.5,261,545.2,269.4z"/>
	<path d="M253.3,159.8c-24.1,25.2-46.4,51.7-65.4,80.9c-18.2,28.1-31.8,58.1-35.5,91.7c-3.1,27.8,0,54.9,12.6,80.3
		c10.2,20.5,28,31,49.9,34.4c31.4,4.9,61.8-11.4,76.5-40.9c-33.1,3.4-59.7-6.2-70.8-39.7c-8.3-25.1-2.1-48.7,17.2-67.1
		c19-18.2,42.3-17.8,67.1-13.1c-2.4,9.6-4.5,18.2-6.7,27c-14.4-2-28.8-5.5-40.6,4c-5.8,4.7-10.4,12.1-13.1,19.3
		c-6.3,17.3-0.4,34.1,13.5,42.6c17.1,10.5,33.4,7.6,50.7-9.1c5.4,3.1,10.8,6.2,16.1,9.3c-9.7,25.7-21.6,48.7-43,66.2
		c-39.4,32.3-118.1,22.5-135.2-45.7c-12-48.1-3.8-92.7,19.4-135.2C188.2,224,219,190.4,253.3,159.8z"/>
	<path d="M2.9,262.2c1.5-9.3,2.8-17.8,4.4-28c9.5,2.7,18.6,4.4,26.9,7.9c51.5,21.6,82,59.9,89.6,115.6c4.4,32.5-0.8,63.6-17.2,92.1
		c-21.5,37.5-55.1,51.8-97.4,46.8c7.1-0.7,14.2-1,21.2-2.1c40.6-6.6,65-31.4,74.7-70.1c12.8-51.4,3-97.4-37.7-134
		C51,275.5,31.4,266.3,9,263.6C7.3,263.4,5.5,262.8,2.9,262.2z"/>
	<path d="M249.1,123.3c-9.7-9.8-18.7-18.8-28.1-28.2c8.5-8.1,17.5-16.7,27.1-25.8c8.7,9.2,17.1,18.1,25.9,27.5
		C265.5,105.9,257.2,114.8,249.1,123.3z"/>
	<path d="M490.7,170.8c-8.7,9.3-16.9,18-24.4,26.2c-9.5-9.5-18.6-18.7-28.1-28.2c7.9-7.6,16.9-16.2,26.6-25.4
		C473.6,152.7,482,161.6,490.7,170.8z"/>
</g>
</svg>
