<?xml version="1.0" encoding="utf-8"?>
<!-- Generator: Adobe Illustrator 25.1.0, SVG Export Plug-In . SVG Version: 6.00 Build 0)  -->
<svg version="1.1" id="Layer_1" xmlns="http://www.w3.org/2000/svg" xmlns:xlink="http://www.w3.org/1999/xlink" x="0px" y="0px"
	 viewBox="0 0 566.9 566.9" style="enable-background:new 0 0 566.9 566.9;" xml:space="preserve">
<style type="text/css">
	.st0{fill:#FFFFFF;}
</style>
<g>
	<polygon class="st0" points="29.3,441.2 34.3,441.2 34.3,426.2 43.5,426.2 43.5,422.2 34.3,422.2 34.3,412 45,412 45,407.6 
		29.3,407.6 	"/>
	<path class="st0" d="M58.6,414.1h-0.5c-3.1,0-5.6,1.1-7.4,3.4c-1.8,2.2-2.7,5.4-2.7,9.4v2.1c0,4,0.9,7.1,2.7,9.4
		c1.8,2.2,4.3,3.4,7.4,3.4h0.5c3.2,0,5.7-1.1,7.5-3.4c1.8-2.2,2.7-5.4,2.7-9.4v-2.1c0-4-0.9-7.2-2.7-9.4
		C64.3,415.3,61.8,414.1,58.6,414.1z M63.7,430.3c0,2.3-0.5,4.1-1.4,5.3c-0.9,1.2-2.2,1.9-4,1.9c-3.5,0-5.3-2.4-5.3-7.2v-4.7
		c0-4.8,1.8-7.2,5.3-7.2c1.8,0,3.1,0.6,4,1.9s1.4,3,1.4,5.3V430.3z"/>
	<path class="st0" d="M78.3,417.8L78.3,417.8l-1.4-3h-3.1v26.4h5.1v-19.4c1-1.8,2.6-2.8,4.8-2.8c0.5,0,1,0,1.4,0.1l0.7-0.4l0.4-4.4
		l-1.4-0.2C81.9,414.1,79.8,415.4,78.3,417.8z"/>
	<path class="st0" d="M114.3,426.7v-0.1c3.5-1.3,5.3-4.1,5.3-8.2v-0.7c0-6.7-3.7-10-11.2-10h-9.2v33.6h5.1v-13.7h3.8
		c0.9,0,1.5,0.4,1.9,1.2l5,12.5h5.5l-4.8-12.2C115.2,427.8,114.7,427,114.3,426.7z M108.4,423.7h-4.1V412h3.6c2.3,0,4,0.5,5,1.4
		s1.5,2.5,1.5,4.6v0.5C114.5,421.9,112.5,423.7,108.4,423.7z"/>
	<path class="st0" d="M134.5,414.1h-0.2c-3.1,0-5.6,1.1-7.6,3.4c-1.9,2.3-2.9,5.4-2.9,9.4v1.8c0,8.7,3.7,13,11,13
		c2.9,0,5.5-0.6,8-1.8l-0.4-3.4l-0.5-0.3c0,0-0.2,0.1-0.5,0.2s-0.6,0.2-1,0.3c-0.4,0.1-0.8,0.2-1.3,0.3c-0.5,0.1-1,0.2-1.6,0.3
		c-0.6,0.1-1.1,0.1-1.7,0.1c-2.4,0-4.2-0.6-5.2-1.8c-1.1-1.2-1.6-3.2-1.6-5.9h14.3l0.4-4.3v-0.8c0-3.4-0.8-6.1-2.4-7.8
		C139.6,415,137.4,414.1,134.5,414.1z M138.8,425.9h-9.9v-1c0-2.1,0.5-3.7,1.5-4.8c1-1.1,2.2-1.6,3.7-1.6h0.2c3,0,4.4,1.9,4.4,5.7
		v1.7H138.8z"/>
	<path class="st0" d="M169.6,437.5c-0.8-0.2-1.3-0.5-1.6-0.9c-0.3-0.5-0.5-1.2-0.5-2.3v-10c0-3.5-0.8-6.1-2.5-7.7s-4.5-2.5-8.4-2.5
		c-2.4,0-4.6,0.3-6.6,0.8c-0.5,2.1-0.7,3.4-0.7,3.9l0.5,0.4l0.8-0.2c0.6-0.1,1.4-0.3,2.4-0.4s2-0.2,2.9-0.2c2.4,0,4.1,0.5,5.1,1.4
		s1.5,2.4,1.5,4.3v0.3l-7.4,0.9c-5.1,0.6-7.6,3.3-7.6,8.1v0.2c0,2.2,0.7,4.1,2.1,5.7c1.4,1.5,3.2,2.3,5.5,2.3c3.3,0,5.8-1.4,7.5-4.2
		h0.1c0.6,2.8,2.2,4.2,4.8,4.2c1.2,0,2.1-0.3,2.7-0.9l0.6-2.8l-0.2-0.5L169.6,437.5z M162.3,434c-1.8,2.4-3.7,3.5-5.9,3.5
		c-1.2,0-2.2-0.4-3-1.1c-0.7-0.8-1.1-1.8-1.1-3.1v-0.2c0-2.5,1.4-3.9,4.3-4.3l5.6-0.8L162.3,434L162.3,434z"/>
	<path class="st0" d="M182.3,437.5c-0.9,0-1.5-0.3-1.9-0.8s-0.6-1.4-0.6-2.6v-28.5h-5.1v29c0,2.4,0.5,4.2,1.4,5.4
		c1,1.2,2.5,1.8,4.6,1.8c1.4,0,2.7-0.2,3.7-0.6V438l-0.5-0.6L182.3,437.5z"/>
	<polygon class="st0" points="202.6,425.7 211.7,425.7 211.7,421.9 202.6,421.9 202.6,412 213.3,412 213.3,407.6 197.5,407.6 
		197.5,441.2 213.8,441.2 213.8,436.9 202.6,436.9 	"/>
	<path class="st0" d="M227.7,425.9l-3.3-0.6c-2.1-0.5-3.1-1.5-3.1-3.1c0-2.5,1.8-3.7,5.4-3.7c1.3,0,3,0.2,4.9,0.6l0.6-0.3l0.4-3.9
		c0,0-0.3-0.1-0.9-0.2c-0.6-0.1-1.3-0.2-2.3-0.3c-1-0.1-1.9-0.2-2.7-0.2c-3.4,0-6,0.7-7.8,2.2s-2.6,3.4-2.6,5.8
		c0,2.1,0.5,3.7,1.6,4.8c1.1,1.1,2.7,1.9,4.8,2.3l2.9,0.6c1.5,0.3,2.6,0.8,3.2,1.3c0.6,0.5,0.9,1.3,0.9,2.2c0,2.7-1.9,4-5.7,4
		c-2.2,0-4.3-0.2-6.3-0.7l-0.6,0.4l0.4,3.9l0.8,0.1c0.5,0.1,1.4,0.2,2.5,0.3c1.1,0.1,2.3,0.1,3.5,0.1c7,0,10.4-2.8,10.4-8.3
		C234.8,429.4,232.4,426.9,227.7,425.9z"/>
	<path class="st0" d="M246.1,408.7h-3.8l-1.3,6.1h-3.5v4.3h3.5v14.4c0,2.9,0.6,4.9,1.8,6.3c1.2,1.3,3.1,2,5.8,2
		c1.5,0,2.8-0.2,3.8-0.6v-3.6l-0.5-0.3h-0.3c-0.2,0.1-0.6,0.1-1,0.2c-0.4,0-0.9,0.1-1.3,0.1c-1.1,0-1.9-0.3-2.5-0.9
		c-0.5-0.6-0.8-1.6-0.8-3.1v-14.4h6.3v-4.3H246v-6.2H246.1z"/>
	<path class="st0" d="M277.8,437.5c-0.8-0.2-1.3-0.5-1.6-0.9c-0.3-0.5-0.5-1.2-0.5-2.3v-10c0-3.5-0.8-6.1-2.5-7.7s-4.5-2.5-8.4-2.5
		c-2.4,0-4.6,0.3-6.6,0.8c-0.5,2.1-0.7,3.4-0.7,3.9l0.5,0.4l0.8-0.2c0.6-0.1,1.4-0.3,2.4-0.4s2-0.2,2.9-0.2c2.4,0,4.1,0.5,5.1,1.4
		s1.5,2.4,1.5,4.3v0.3l-7.4,0.9c-5.1,0.6-7.6,3.3-7.6,8.1v0.2c0,2.2,0.7,4.1,2.1,5.7c1.4,1.5,3.2,2.3,5.5,2.3c3.3,0,5.8-1.4,7.5-4.2
		h0.1c0.6,2.8,2.2,4.2,4.8,4.2c1.2,0,2.1-0.3,2.7-0.9l0.6-2.8l-0.2-0.5L277.8,437.5z M270.5,434c-1.8,2.4-3.7,3.5-5.9,3.5
		c-1.2,0-2.2-0.4-3-1.1c-0.7-0.8-1.1-1.8-1.1-3.1v-0.2c0-2.5,1.4-3.9,4.3-4.3l5.6-0.8v6H270.5z"/>
	<path class="st0" d="M289.4,408.7h-3.8l-1.3,6.1h-3.5v4.3h3.5v14.4c0,2.9,0.6,4.9,1.8,6.3c1.2,1.3,3.1,2,5.8,2
		c1.5,0,2.8-0.2,3.8-0.6v-3.6l-0.5-0.3h-0.3c-0.2,0.1-0.6,0.1-1,0.2c-0.4,0-0.9,0.1-1.3,0.1c-1.1,0-1.9-0.3-2.5-0.9
		c-0.5-0.6-0.8-1.6-0.8-3.1v-14.4h6.3v-4.3h-6.3L289.4,408.7L289.4,408.7z"/>
	<path class="st0" d="M309.6,414.1h-0.2c-3.1,0-5.6,1.1-7.6,3.4c-1.9,2.3-2.9,5.4-2.9,9.4v1.8c0,8.7,3.7,13,11,13
		c2.9,0,5.5-0.6,8-1.8l-0.4-3.4l-0.5-0.3c0,0-0.2,0.1-0.5,0.2s-0.6,0.2-1,0.3c-0.4,0.1-0.8,0.2-1.3,0.3c-0.5,0.1-1,0.2-1.6,0.3
		c-0.6,0.1-1.1,0.1-1.7,0.1c-2.4,0-4.2-0.6-5.2-1.8c-1.1-1.2-1.6-3.2-1.6-5.9h14.3l0.4-4.3v-0.8c0-3.4-0.8-6.1-2.4-7.8
		C314.7,415,312.5,414.1,309.6,414.1z M313.9,425.9H304v-1c0-2.1,0.5-3.7,1.5-4.8c1-1.1,2.2-1.6,3.7-1.6h0.2c3,0,4.4,1.9,4.4,5.7
		L313.9,425.9L313.9,425.9z"/>
	<rect x="332.9" y="407.6" class="st0" width="5.1" height="33.6"/>
	<path class="st0" d="M357.4,414.1c-3,0-5.8,1.2-8.6,3.7l-1.5-3.1h-3.1v26.4h5.1v-20.3c2-1.6,4-2.4,6.2-2.4c2.7,0,4,1.5,4,4.4v18.4
		h5.1V422c0-2.4-0.6-4.3-1.9-5.7C361.3,414.8,359.6,414.1,357.4,414.1z"/>
	<polygon class="st0" points="380.7,430 379.3,436.1 378.9,436.1 377.6,430 373.3,414.8 368.3,414.8 375.8,441.2 382.4,441.2 
		390,414.8 384.9,414.8 	"/>
	<path class="st0" d="M403.4,414.1h-0.2c-3.1,0-5.6,1.1-7.6,3.4c-1.9,2.3-2.9,5.4-2.9,9.4v1.8c0,8.7,3.7,13,11,13
		c2.9,0,5.5-0.6,8-1.8l-0.4-3.4l-0.5-0.3c0,0-0.2,0.1-0.5,0.2s-0.6,0.2-1,0.3c-0.4,0.1-0.8,0.2-1.3,0.3c-0.5,0.1-1,0.2-1.6,0.3
		c-0.6,0.1-1.1,0.1-1.7,0.1c-2.4,0-4.2-0.6-5.2-1.8c-1.1-1.2-1.6-3.2-1.6-5.9h14.3l0.4-4.3v-0.8c0-3.4-0.8-6.1-2.4-7.8
		C408.6,415,406.3,414.1,403.4,414.1z M407.8,425.9h-9.9v-1c0-2.1,0.5-3.7,1.5-4.8c1-1.1,2.2-1.6,3.7-1.6h0.2c3,0,4.4,1.9,4.4,5.7
		L407.8,425.9L407.8,425.9z"/>
	<path class="st0" d="M427.8,425.9l-3.3-0.6c-2.1-0.5-3.1-1.5-3.1-3.1c0-2.5,1.8-3.7,5.4-3.7c1.3,0,3,0.2,4.9,0.6l0.6-0.3l0.4-3.9
		c0,0-0.3-0.1-0.9-0.2s-1.3-0.2-2.3-0.3c-1-0.1-1.9-0.2-2.7-0.2c-3.4,0-6,0.7-7.8,2.2s-2.6,3.4-2.6,5.8c0,2.1,0.5,3.7,1.6,4.8
		c1.1,1.1,2.7,1.9,4.8,2.3l2.9,0.6c1.5,0.3,2.6,0.8,3.2,1.3s0.9,1.3,0.9,2.2c0,2.7-1.9,4-5.7,4c-2.2,0-4.3-0.2-6.3-0.7l-0.6,0.4
		l0.4,3.9l0.8,0.1c0.5,0.1,1.4,0.2,2.5,0.3c1.1,0.1,2.3,0.1,3.5,0.1c7,0,10.4-2.8,10.4-8.3C434.8,429.4,432.5,426.9,427.8,425.9z"/>
	<path class="st0" d="M465.9,414.1c-2.8,0-5.4,1.3-8,3.8c-1.1-2.5-3.2-3.8-6.1-3.8c-2.6,0-5.2,1.2-7.8,3.7l-1.4-3h-3.1v26.4h5.1
		v-20.4c1.7-1.5,3.6-2.3,5.5-2.3c2.3,0,3.4,1.3,3.4,3.9v18.8h5.1v-17.9c0-1,0-1.9-0.1-2.4c1.8-1.6,3.7-2.4,5.6-2.4
		c1,0,1.8,0.3,2.5,1c0.6,0.7,1,1.6,1,2.9v18.8h5.1v-19.7c0-2.3-0.6-4.1-1.8-5.4C469.6,414.8,467.9,414.1,465.9,414.1z"/>
	<path class="st0" d="M488.1,414.1h-0.2c-3.1,0-5.6,1.1-7.6,3.4c-1.9,2.3-2.9,5.4-2.9,9.4v1.8c0,8.7,3.7,13,11,13
		c2.9,0,5.5-0.6,8-1.8l-0.4-3.4l-0.5-0.3c0,0-0.2,0.1-0.5,0.2s-0.6,0.2-1,0.3c-0.4,0.1-0.8,0.2-1.3,0.3c-0.5,0.1-1,0.2-1.6,0.3
		c-0.6,0.1-1.1,0.1-1.7,0.1c-2.4,0-4.2-0.6-5.2-1.8c-1.1-1.2-1.6-3.2-1.6-5.9h14.3l0.4-4.3v-0.8c0-3.4-0.8-6.1-2.4-7.8
		C493.2,415,491,414.1,488.1,414.1z M492.4,425.9h-9.9v-1c0-2.1,0.5-3.7,1.5-4.8c1-1.1,2.2-1.6,3.7-1.6h0.2c3,0,4.4,1.9,4.4,5.7
		L492.4,425.9L492.4,425.9z"/>
	<path class="st0" d="M515.3,414.1c-3,0-5.8,1.2-8.6,3.7l-1.5-3.1h-3.1v26.4h5.1v-20.3c2-1.6,4-2.4,6.2-2.4c2.7,0,4,1.5,4,4.4v18.4
		h5.1V422c0-2.4-0.6-4.3-1.9-5.7C519.3,414.8,517.5,414.1,515.3,414.1z"/>
	<path class="st0" d="M534.9,408.7h-3.8l-1.3,6.1h-3.5v4.3h3.5v14.4c0,2.9,0.6,4.9,1.8,6.3c1.2,1.3,3.1,2,5.8,2
		c1.5,0,2.8-0.2,3.8-0.6v-3.6l-0.5-0.3h-0.3c-0.2,0.1-0.6,0.1-1,0.2c-0.4,0-0.9,0.1-1.3,0.1c-1.1,0-1.9-0.3-2.5-0.9
		c-0.5-0.6-0.8-1.6-0.8-3.1v-14.4h6.3v-4.3h-6.3L534.9,408.7L534.9,408.7z"/>
	<path class="st0" d="M51.8,367.2l1.3,3.6h4.8v-31.4h-8.7v22.2c-2.5,1.9-5,2.9-7.5,2.9c-3.6,0-6.4-1.5-8.2-4.4
		c-1.9-2.9-2.8-8.2-2.8-15.8v-2.7c0-8.3,1.1-14,3.4-17.2s6-4.8,11.2-4.8c2.6,0,5.8,0.4,9.6,1.3l0.8-0.4l0.8-6.7l-1.8-0.4
		c-1.1-0.2-2.7-0.5-4.6-0.8c-2-0.3-3.8-0.4-5.5-0.4c-7.5,0-13.1,2.2-16.9,6.6S22,330.7,22,341.2v3c0,18.4,6.1,27.6,18.3,27.6
		C44.5,371.8,48.4,370.2,51.8,367.2z"/>
	<path class="st0" d="M74.7,330.6L74.7,330.6l-2.5-5.2H67v45.4h8.7v-33.4c1.7-3.2,4.5-4.7,8.3-4.7c0.9,0,1.7,0.1,2.5,0.3l1.2-0.8
		l0.7-7.5l-2.5-0.3C81,324.3,77.3,326.4,74.7,330.6z"/>
	<path class="st0" d="M132.1,370.2l1.1-4.7l-0.4-0.8l-1.5-0.3c-1.3-0.3-2.2-0.8-2.8-1.6c-0.6-0.8-0.9-2.1-0.9-3.9v-17.2
		c0-6-1.4-10.5-4.3-13.3s-7.7-4.2-14.5-4.2c-4.2,0-7.9,0.5-11.3,1.4c-0.8,3.6-1.3,5.8-1.3,6.7l0.9,0.8l1.4-0.3
		c1-0.2,2.4-0.5,4.1-0.7s3.4-0.3,4.9-0.3c4.2,0,7.1,0.8,8.7,2.4c1.7,1.6,2.5,4.1,2.5,7.4v0.6l-12.7,1.6c-8.7,1.1-13.1,5.7-13.1,13.9
		v0.4c0,3.8,1.2,7.1,3.6,9.7s5.6,4,9.5,4c5.7,0,10-2.4,12.9-7.2h0.3c1,4.8,3.7,7.2,8.2,7.2C129.5,371.8,131,371.3,132.1,370.2z
		 M118.8,358.3c-3,4.1-6.4,6.1-10.1,6.1c-2.1,0-3.8-0.6-5.1-1.9c-1.3-1.3-1.9-3-1.9-5.2v-0.4c0-4.3,2.5-6.8,7.4-7.4l9.6-1.4
		L118.8,358.3L118.8,358.3z"/>
	<path class="st0" d="M148.7,337.4c1.7-3.2,4.5-4.7,8.3-4.7c0.9,0,1.7,0.1,2.5,0.3l1.2-0.8l0.7-7.5l-2.5-0.3
		c-4.8,0-8.6,2.1-11.2,6.3h-0.1l-2.4-5.2H140v45.4h8.7V337.4z"/>
	<path class="st0" d="M203.7,376v-0.8c0-3.3-1.3-6.1-3.8-8.4s-6.1-3.4-10.7-3.4h-10c-1.4,0-2.4-0.4-3.2-1.1s-1.1-1.6-1.1-2.8
		c0-1.4,0.5-3,1.6-4.6c1.6,0.5,3.5,0.7,5.7,0.7h1.3c2.9,0,5.5-0.5,7.8-1.4s4.4-2.5,6-4.9c1.7-2.4,2.5-5.5,2.5-9.2c0-2-0.4-4-1.1-6
		c1.2-0.8,2.6-1.2,4.1-1.2c0.2,0,0.5,0,0.8,0s0.5,0,0.8,0l0.3,0.1l0.8-0.8v-6.8h-1.4c-3.3,0-6.1,1.2-8.4,3.7h-0.1
		c-3-3.2-7.1-4.8-12.2-4.8h-1.3c-5,0-9,1.5-12,4.5s-4.4,6.7-4.4,11.2c0,5.6,1.8,9.7,5.5,12.3c-2.5,3-3.8,6.1-3.8,9.3
		c0,3.1,1.2,5.4,3.6,6.9v0.3c-1.7,1.1-3.1,2.5-4.1,4.1c-1,1.7-1.5,3.4-1.5,5v0.3c0,3.2,1.5,5.8,4.4,7.9c2.9,2,7.1,3,12.6,3h3.1
		c6.2,0,10.8-1.3,13.8-3.8C202.2,383,203.7,379.8,203.7,376z M174.5,338.9c0-2.4,0.7-4.4,2.2-5.8c1.4-1.5,3.5-2.2,6.2-2.2
		c2.6,0,4.7,0.7,6.1,2.2c1.4,1.5,2.2,3.4,2.2,5.8v1.5c0,2.6-0.7,4.7-2.1,6.2c-1.4,1.6-3.5,2.3-6.2,2.3c-2.8,0-4.8-0.8-6.3-2.3
		c-1.4-1.5-2.1-3.6-2.1-6.2L174.5,338.9L174.5,338.9z M195,376.4c0,4.2-3.4,6.3-10.1,6.3h-2.1c-2.8,0-5-0.6-6.5-1.7
		s-2.3-2.7-2.3-4.6c0-2,0.9-3.9,2.8-5.7c0.5,0.1,1.2,0.1,2,0.1h9.1c2.3,0,4.1,0.5,5.2,1.5c1.2,1,1.8,2.3,1.8,3.9v0.2H195z"/>
	<path class="st0" d="M238.8,370.7h8.7v-33c0-4.2-1.1-7.5-3.4-9.9c-2.3-2.4-5.3-3.6-9-3.6c-4.8,0-9.3,1.8-13.6,5.4h-0.2v-20h-8.7
		v61.1h8.7v-34.9c3.4-2.8,6.9-4.1,10.7-4.1c4.6,0,6.8,2.5,6.8,7.5V370.7z"/>
	<path class="st0" d="M281.7,364.6c1,4.8,3.7,7.2,8.2,7.2c2,0,3.6-0.5,4.6-1.5l1.1-4.7l-0.4-0.8l-1.5-0.3c-1.3-0.3-2.2-0.8-2.8-1.6
		c-0.6-0.8-0.9-2.1-0.9-3.9v-17.2c0-6-1.4-10.5-4.3-13.3s-7.7-4.2-14.5-4.2c-4.2,0-7.9,0.5-11.3,1.4c-0.8,3.6-1.3,5.8-1.3,6.7
		l0.9,0.8l1.4-0.3c1-0.2,2.4-0.5,4.1-0.7s3.4-0.3,4.9-0.3c4.2,0,7.1,0.8,8.7,2.4c1.7,1.6,2.5,4.1,2.5,7.4v0.6l-12.7,1.6
		c-8.7,1.1-13.1,5.7-13.1,13.9v0.4c0,3.8,1.2,7.1,3.6,9.7s5.6,4,9.5,4c5.7,0,10-2.4,12.9-7.2h0.4V364.6z M281.2,358.3
		c-3,4.1-6.4,6.1-10.1,6.1c-2.1,0-3.8-0.6-5.1-1.9c-1.3-1.3-1.9-3-1.9-5.2v-0.4c0-4.3,2.5-6.8,7.4-7.4l9.6-1.4v10.2H281.2z"/>
	<path class="st0" d="M310.1,330.6L310.1,330.6l-2.5-5.2h-5.2v45.4h8.7v-33.4c1.7-3.2,4.5-4.7,8.3-4.7c0.9,0,1.7,0.1,2.5,0.3
		l1.2-0.8l0.7-7.5l-2.5-0.3C316.4,324.3,312.7,326.4,310.1,330.6z"/>
	<path class="st0" d="M363,371.8c4.4,0,8.3-1.5,11.7-4.6l1.3,3.6h4.8v-31.4h-8.7v22.2c-2.5,1.9-5,2.9-7.5,2.9
		c-3.6,0-6.4-1.5-8.2-4.4c-1.9-2.9-2.8-8.2-2.8-15.8v-2.7c0-8.3,1.1-14,3.4-17.2s6-4.8,11.2-4.8c2.6,0,5.8,0.4,9.6,1.3l0.8-0.4
		l0.8-6.7l-1.8-0.4c-1.1-0.2-2.7-0.5-4.6-0.8c-2-0.3-3.8-0.4-5.5-0.4c-7.5,0-13.1,2.2-16.9,6.6s-5.7,11.9-5.7,22.4v3
		C344.7,362.6,350.8,371.8,363,371.8z"/>
	<path class="st0" d="M398.6,337.4c1.7-3.2,4.5-4.7,8.3-4.7c0.9,0,1.7,0.1,2.5,0.3l1.2-0.8l0.7-7.5l-2.5-0.3
		c-4.8,0-8.6,2.1-11.2,6.3h-0.1l-2.4-5.2h-5.2v45.4h8.7V337.4z"/>
	<path class="st0" d="M433.5,371.8h0.9c5.5,0,9.7-1.9,12.8-5.8c3.1-3.9,4.6-9.2,4.6-16.1v-3.6c0-6.9-1.6-12.3-4.6-16.2
		c-3.1-3.9-7.4-5.8-12.8-5.8h-0.9c-5.4,0-9.7,1.9-12.8,5.8c-3.1,3.9-4.6,9.3-4.6,16.2v3.6c0,6.9,1.5,12.2,4.6,16.1
		C423.8,369.8,428.1,371.8,433.5,371.8z M424.9,344c0-8.2,3-12.3,9.1-12.3c3,0,5.3,1.1,6.9,3.3c1.5,2.2,2.3,5.2,2.3,9.1v8
		c0,3.9-0.8,7-2.3,9.1c-1.6,2.1-3.8,3.2-6.9,3.2c-6.1,0-9.1-4.1-9.1-12.3V344z"/>
	<path class="st0" d="M499.1,364.4c-1.3-0.3-2.2-0.8-2.8-1.6c-0.6-0.8-0.9-2.1-0.9-3.9v-33.6h-8.7v33c-3,4.1-6.5,6.1-10.5,6.1
		c-4.7,0-7-3-7-9v-30.1h-8.7v30.8c0,5,1.1,8.8,3.3,11.5c2.2,2.7,5.5,4.1,9.8,4.1c5.6,0,10-2.4,13.4-7.2h0.3c1,4.8,3.7,7.2,8.2,7.2
		c2,0,3.6-0.5,4.6-1.5l1.1-4.7l-0.4-0.8L499.1,364.4z"/>
	<path class="st0" d="M528.8,324.3c-2.1,0-4.2,0.4-6.2,1.1c-2,0.8-3.4,1.4-4.2,2s-1.9,1.4-3.2,2.5l-2.2-4.6h-5.2v62.9h8.7v-21h0.2
		c3.4,3,7.3,4.5,11.7,4.5c4.5,0,8.2-1.8,11-5.5s4.2-9.2,4.2-16.4v-3.2C543.6,331.7,538.7,324.3,528.8,324.3z M534.9,349.4
		c0,10-3.2,15-9.6,15c-1.3,0-2.7-0.3-4.1-0.9c-1.4-0.6-2.5-1.1-3.2-1.6s-1.2-0.9-1.5-1.2v-26c3-2,6.3-3,9.6-3c3,0,5.2,1.2,6.6,3.5
		c1.4,2.3,2.1,6.3,2.1,11.9v2.3H534.9z"/>
</g>
<g>
	<path class="st0" d="M56.2,254h-6.6v-2.8c0-1.9,0.7-3.5,2-4.8s3.7-2,7-2c1.1,0,2.2,0.1,3.5,0.3v-4.1c-2.3-0.3-4.3-0.5-6.1-0.4
		c-3.6,0-6.3,0.8-8.4,2.3c-2.2,1.8-3.4,4.7-3.4,8.7v7.7H54c2.1,0,3.3,0.5,3.7,1.5c0.2,0.6,0.3,1.3,0.3,2.3s-0.2,1.8-0.4,2.3
		c-1.1,2.3-4.8,3.5-11.1,3.5c-6.7,0-11-1.2-12.7-3.7c-0.6-0.8-1-1.6-1.3-2.3c-0.3-0.8-0.5-2.1-0.4-4.2c0-2,0.4-4.4,1.3-7.2l-4.6,1.9
		c-0.7,1.2-1.2,3-1.4,5.4c-0.4,4,0.5,7.2,2.8,9.7c3.3,3.7,8.7,5.5,16.4,5.5c9.5,0,15-2.6,16.4-7.7c0.7-2.5,0.7-5,0.1-7.6
		C62.4,255.5,60.1,254,56.2,254z"/>
	<polygon class="st0" points="46.3,282.8 43.3,280 39.7,283.2 43.3,286.4 46.3,283.6 49.5,286.4 53,283.2 49.5,280 	"/>
	<path class="st0" d="M73.3,258.7c0,0.2,0,0.5,0,0.8c0,1.8,0,3.2-0.1,4c0,0.9-0.2,2-0.4,3.4c-0.2,1.4-0.6,2.5-1,3.3
		c-0.5,0.8-1.1,1.7-2,2.7s-2,1.9-3.4,2.7l4,3c3.4-2.3,5.6-4.7,6.5-7.2s1.4-6.9,1.4-13.3v-16.3l-5.1,1.9L73.3,258.7L73.3,258.7z"/>
	<polygon class="st0" points="153.9,227.4 150.4,230.6 153.9,233.7 157,230.9 160.1,233.7 163.6,230.6 160.1,227.4 157,230.2 	"/>
	<path class="st0" d="M234.7,256.5c0,2.5-1.3,3.7-3.8,3.7H226h-0.3h-8.6h-0.3H211c-1.7,0-3.5-0.3-5.3-1c1.7-1.5,3.1-3.2,4-5
		c1-1.9,1.5-3.6,1.5-5.2c0-1.6-0.3-3.2-1-4.6c-0.7-1.2-1.5-2.2-2.6-3s-2.4-1.3-3.8-1.6c-1.4-0.3-2.9-0.4-4.3-0.5
		c-1.4,0-3.1,0.1-4.9,0.4c-1.8,0.3-3.4,0.6-4.8,0.9c-1.4,0.3-2.9,0.7-4.7,1.2v8c4.3,4.6,7.7,7.8,10,9.7c-2.2,0.6-4.5,0.8-6.8,0.8
		h-6.7h-0.3h-8.6h-0.3h-7.7v-19.4c-1.8-0.2-3.7-0.3-5.7-0.3c-5.1,0-9.1,1.1-12,3.2c-1.7,1.2-2.9,2.8-3.8,4.6
		c-0.9,1.9-1.2,3.8-1.1,5.9c0.1,2.6,0.9,4.6,2.3,6.1h-9.8h-0.3H126h-0.3h-8.6h-0.3h-8.5H108h-8.5h-0.3h-3.1c-2.6,0-3.9-1.2-3.9-3.7
		v-28.5l-5.1,1.8v27.4c0,2.8,0.7,4.8,2,6.1c1.4,1.3,3.5,1.9,6.4,1.9h3.6h0.3h8.5h0.4h8.5h0.3h8.6h0.3h8.6h0.3h37.8h0.3h8.6h0.3h4.6
		c5.3,0,9.9-0.9,13.8-2.6c3.3,1.7,7,2.6,10.8,2.6h5.9h0.3h8.6h0.3h5.3c2.9,0,5-0.6,6.4-1.9s2-3.3,2-6.1v-29.2l-5.1,1.8v26.5H234.7z
		 M159.8,260.2h-5c-2.7,0-4.6-0.6-5.6-1.9c-1.1-1.2-1.6-2.8-1.6-4.6c0-2.3,0.9-4.2,2.7-5.8s4.1-2.3,6.8-2.3c1.1,0,2,0,2.7,0.1
		L159.8,260.2L159.8,260.2z M204.4,253.1c-0.8,1.3-1.9,2.5-3.4,3.6c-3.1-2.1-7.1-5.7-12.1-11.1c8.8-1.9,14.1-1.5,16,1.1
		c0.4,0.8,0.7,1.7,0.6,2.8C205.6,250.6,205.2,251.8,204.4,253.1z"/>
	<polygon class="st0" points="249.4,265.5 254.6,263.6 254.6,228.1 249.4,229.9 	"/>
	<path class="st0" d="M278.2,258.7c0,0.2,0,0.5,0,0.8c0,1.8,0,3.2-0.1,4c0,0.9-0.2,2-0.4,3.4c-0.2,1.4-0.6,2.5-1,3.3
		c-0.5,0.8-1.1,1.7-2,2.7s-2,1.9-3.4,2.7l4,3c3.4-2.3,5.6-4.7,6.5-7.2s1.4-6.9,1.4-13.3v-16.3l-5.1,1.9v15H278.2z"/>
	<polygon class="st0" points="376.9,234.6 379.9,231.8 383.1,234.6 386.6,231.4 383.1,228.2 379.9,231 376.9,228.2 373.3,231.4 	"/>
	<polygon class="st0" points="383,225 379.8,222.2 376.8,225 379.8,227.9 	"/>
	<polygon class="st0" points="409.6,231.8 412.8,234.6 416.3,231.4 412.8,228.2 409.6,231 406.5,228.2 403,231.4 406.5,234.6 	"/>
	<path class="st0" d="M469.5,256.7c0,2.3-1.3,3.5-3.8,3.5h-4.2c0.2-0.8,0.3-1.8,0.3-2.9v-13.5l-5.1,1.8v11.1c0,2.3-1.3,3.5-3.8,3.5
		h-4.2c0.2-0.8,0.3-1.8,0.3-2.9v-13.5l-5.1,1.8v11.1c0,2.3-1.3,3.5-3.8,3.5h-11.6h-0.3h-8.6h-0.3h-7.9c0.2-0.7,0.3-1.7,0.3-2.9
		v-15.6l-5.1,1.9v13.1c0,2.3-1.2,3.5-3.7,3.5h-4.1h-0.3h-8.6h-0.3h-7.9c0.2-0.7,0.3-1.7,0.3-2.9v-15.6l-5.1,1.9v13.1
		c0,2.3-1.2,3.5-3.7,3.5h-4.1H369h-8v-19.4c-1.8-0.2-3.7-0.3-5.7-0.3c-5.1,0-9.2,1.1-12.1,3.2c-1.7,1.2-2.9,2.8-3.8,4.7
		s-1.2,3.8-1.1,5.9c0.1,2.5,0.9,4.5,2.4,6h-9.9h-0.3H322h-0.3h-8.5h-0.4h-8.5H304h-3.1c-2.6,0-3.9-1.2-3.9-3.7v-28.5l-5.1,1.8v27.4
		c0,2.8,0.7,4.8,2,6.1c1.4,1.3,3.5,1.9,6.4,1.9h3.6h0.3h8.5h0.4h8.5h0.3h8.6h0.3H369h0.3h4.6c3,0,5.2-0.7,6.6-2.1v2.1h9.4h0.3h8.6
		h0.3h4.6c3,0,5.2-0.7,6.6-2.1v2.1h9.4h0.3h8.6h0.3H441c3.1,0,5.3-0.7,6.6-2.1v2.1h6.2c3.1,0,5.3-0.7,6.6-2.1v2.1h6.1
		c2.9,0,5-0.6,6.4-1.9c1.3-1.3,2-3.3,2-6.1v-15.5l-5.1,1.8v13.1H469.5z M355.9,260.2h-5c-2.7,0-4.6-0.6-5.6-1.9
		c-1.1-1.2-1.6-2.8-1.6-4.6c0-2.3,0.9-4.3,2.7-5.8c1.8-1.5,4-2.3,6.8-2.3c1.1,0,2,0,2.8,0.1L355.9,260.2L355.9,260.2z"/>
	<path class="st0" d="M487.2,272.9c-0.9,1-1.4,2.2-1.4,3.5c0,1,0.3,1.8,0.8,2.6h-2.9v2.9h11.2V279h-3c-2.1,0-3.1-0.8-3.1-2.4
		s1-2.4,3.1-2.4h3v-2.8h-3.6C489.5,271.4,488.1,271.9,487.2,272.9z"/>
	<path class="st0" d="M531.1,256.5c0,2.5-1.3,3.7-3.8,3.7h-4.9h-0.3h-8.6h-0.3h-7.9c0.2-0.9,0.3-1.9,0.3-2.9v-29.2l-5.1,1.8v26.6
		c0,2.5-1.3,3.7-3.9,3.7h-3.3c2.9-2.4,3.2-6.6,0.7-12.8l-5.3-13.3l-4.8,1.7l5.9,14.6c1.2,2.9,1.2,5.3-0.1,7
		c-1.2,1.8-2.8,2.6-4.8,2.6h-1.4v5.1h13.6c3.1,0,5.3-0.7,6.6-2.1v2.1h9.4h0.3h8.6h0.3h5.3c2.9,0,5-0.6,6.4-1.9s2-3.3,2-6.1v-29.2
		l-5.1,1.8v26.8H531.1z"/>
	<path class="st0" d="M38.9,195.8c1.5-4,2.3-11.2,2.3-21.7v-26.5l-8.2,3v24.5c0,0.3,0,0.7,0,1.3c0,3,0,5.2-0.1,6.6
		c-0.1,1.4-0.3,3.2-0.6,5.5c-0.4,2.3-0.9,4.1-1.7,5.4c-0.7,1.3-1.8,2.8-3.3,4.3c-1.5,1.6-3.3,3.1-5.5,4.4l6.5,4.8
		C33.8,203.7,37.3,199.8,38.9,195.8z"/>
	<polygon class="st0" points="105.6,131.5 100,126.4 94.3,131.5 100,136.6 	"/>
	<path class="st0" d="M72,185.7h43.7v-8.2h-12.3c-4.3,0-7.6-1.3-9.8-3.9c-2.1-2.4-3-5.5-2.8-9.2c0.4-2.8,1.7-5.2,3.8-7.2
		c2.1-2,5.1-3,9-3c2.3,0,5.2,0.5,8.5,1.4v-7.3c-3.9-1.4-7.5-2.1-10.8-2.1c-0.7,0-1.7,0.1-3,0.2c-5.9,0.8-10.2,3.1-13,7.1
		c-1.5,2.1-2.5,4.6-3,7.4c-0.5,2.8-0.4,5.7,0.4,8.7s2.3,5.7,4.6,8H72h-0.4h-5c-4.2,0-6.3-2-6.3-6v-46.2l-8.2,2.9v44.5
		c0,4.5,1.1,7.7,3.3,9.8s5.7,3.1,10.4,3.1h5.8H72z"/>
	<path class="st0" d="M135.9,198.5c1.8-2.9,2.8-7.2,3.3-12.8h12.7h0.4H196v-8.2h-12.3c-4.4,0-7.6-1.3-9.8-3.9
		c-2.1-2.4-3-5.5-2.8-9.2c0.4-2.8,1.7-5.2,3.8-7.2s5.1-3,9-3c2.3,0,5.2,0.5,8.5,1.4v-7.3c-3.9-1.4-7.5-2.1-10.8-2.1
		c-0.7,0-1.7,0.1-3,0.2c-5.9,0.8-10.2,3.1-13,7.1c-1.5,2.1-2.5,4.6-3,7.4c-0.5,2.8-0.4,5.7,0.4,8.7c0.8,3,2.3,5.7,4.6,8h-15.2H152
		h-12.3v-29.9l-8.2,3v24.5c0,0.3,0,0.7,0,1.3c0,3,0,5.2-0.1,6.6c-0.1,1.4-0.3,3.2-0.6,5.5c-0.4,2.3-0.9,4.1-1.7,5.4
		c-0.7,1.3-1.8,2.8-3.3,4.3c-1.5,1.6-3.3,3.1-5.5,4.4l6.5,4.8C131.1,204.4,134.2,201.4,135.9,198.5z"/>
	<polygon class="st0" points="185.9,131.5 180.3,126.4 174.7,131.5 180.3,136.6 	"/>
	<polygon class="st0" points="246.4,131.7 251.5,136.1 257.3,131 251.5,125.8 246.4,130.4 241.5,125.8 235.7,131 241.5,136.1 	"/>
	<path class="st0" d="M314.6,177.5h-12.3c-4.3,0-7.6-1.3-9.8-3.9c-2.1-2.4-3-5.5-2.8-9.2c0.4-2.8,1.7-5.2,3.8-7.2c2.1-2,5.1-3,9-3
		c2.3,0,5.2,0.5,8.5,1.4v-7.3c-3.9-1.4-7.5-2.1-10.8-2.1c-0.7,0-1.7,0.1-3,0.2c-5.9,0.8-10.2,3.1-13,7.1c-1.5,2.1-2.5,4.6-3,7.4
		c-0.5,2.8-0.4,5.7,0.4,8.7s2.3,5.7,4.6,8h-15.3h-0.4h-12.1v-31.8c-2.9-0.4-5.5-0.5-8-0.5c-7.9,0-14.4,1.8-19.3,5.5
		c-2.7,2-4.7,4.5-6.2,7.6c-1.4,3.1-2,6.5-1.8,10.1c0.2,3,1,5.7,2.3,8s2.9,4.1,5,5.5c2,1.3,4.2,2.3,6.5,2.9c2.3,0.6,4.7,0.9,7.3,0.9
		l5-8.1c-3.2,0.2-5.9,0.1-8.2-0.3c-2.3-0.4-4-1-5.1-1.7s-2-1.6-2.7-2.8s-1.1-2.1-1.2-2.8c-0.1-0.7-0.2-1.5-0.3-2.4
		c-0.1-1.9,0.3-3.8,1.1-5.7c0.9-1.9,2-3.4,3.4-4.5c3.7-2.7,8.4-3.9,14-3.6v31.8h20.3h0.4h43.8v-8.2H314.6z"/>
	<polygon class="st0" points="470,201.7 464.3,196.6 458.7,201.7 464.3,206.8 	"/>
	<path class="st0" d="M532.1,145.4c-8.3,0-14.8,1.7-19.5,5.2c-2.7,2-4.7,4.6-6.1,7.6s-2,6.2-1.8,9.6c0.2,4.2,1.5,7.4,3.8,9.7h-15.9
		H492h-3.8c-3.9,0-7-3.8-9.1-11.4c-1.7-7.3-4-12.5-7.1-15.6s-7.4-4.6-13.1-4.7c-3.8,0.1-6.9,0.5-9.4,1.1l-3.3,8.4
		c3.3-0.8,6.4-1.3,9.3-1.4h0.6c2.5,0,4.7,0.4,6.6,1.2s3.4,2,4.5,3.4c1.1,1.5,2,2.9,2.6,4.4c0.6,1.4,1.1,3.1,1.6,5l0.2,0.9
		c1,4.2,2.1,7.1,3.1,8.8h-40h-0.4h-13V146c-2.9-0.4-5.9-0.5-9.2-0.5c-8.3,0-14.9,1.7-19.6,5.2c-2.7,2-4.7,4.6-6.1,7.6
		s-2,6.2-1.8,9.6c0.2,4.1,1.5,7.4,3.8,9.7h-16H372h-10.8c0.1-0.6,0.1-1.5,0.1-2.7V146c-2.9-0.4-5.6-0.5-8.1-0.5
		c-8.1,0-14.5,1.7-19.2,5.2c-2.6,1.9-4.7,4.4-6.1,7.6c-1.5,3.1-2.2,6.5-2.2,10.1c0,3.5,0.6,6.4,1.8,8.8c1.2,2.4,2.9,4.2,5,5.4
		s4.2,2,6.4,2.5c2.2,0.5,4.6,0.8,7.2,0.8h6.5c-1.3,6.1-5.7,11.5-13.4,16.2l7.4,4.2c4.2-2.7,7.4-5.6,9.6-8.7c2.2-3.1,3.6-7,4.4-11.7
		H372h0.4h61.8h0.4H492h0.4h48.8V146C538.4,145.6,535.4,145.4,532.1,145.4z M353,177.5h-7.1c-4.3,0-7.4-1-9.1-3s-2.6-4.5-2.6-7.4
		c0-3.8,1.4-6.9,4.2-9.3c2.8-2.5,6.4-3.8,10.9-3.9h3.7V177.5z M413,177.5h-8.1c-4.4,0-7.4-1-9.1-3s-2.6-4.5-2.6-7.4
		c0-3.8,1.4-7,4.3-9.5s6.6-3.8,11-3.8c1.8,0,3.3,0.1,4.5,0.2L413,177.5L413,177.5z M533.1,177.5H525c-4.4,0-7.4-1-9.1-3
		c-1.7-2-2.6-4.5-2.6-7.4c0-3.8,1.5-6.9,4.4-9.4s6.6-3.8,11.1-3.8c1.8,0,3.3,0.1,4.4,0.2v23.4H533.1z"/>
</g>
</svg>
