<?xml version="1.0" encoding="utf-8"?>
<!-- Generator: Adobe Illustrator 25.1.0, SVG Export Plug-In . SVG Version: 6.00 Build 0)  -->
<svg version="1.1" id="Layer_1" xmlns="http://www.w3.org/2000/svg" xmlns:xlink="http://www.w3.org/1999/xlink" x="0px" y="0px"
	 viewBox="0 0 566.9 566.9" style="enable-background:new 0 0 566.9 566.9;" xml:space="preserve">
<style type="text/css">
	.st0{fill:#FFFFFF;}
</style>
<g>
	<path class="st0" d="M480.5,264c-1.6,6.4-3.1,12.8-4.8,19.6c-10.5-2.1-21.3-4.6-30.2,2.6c-4.6,3.7-8.3,9.5-10.3,15.2
		c-4.7,13.2,0.3,25.7,11.3,32c13.1,7.5,26.4,5,37.7-7.5c3.3,1.8,6.7,3.8,10.1,5.7c-6.9,18.3-15.2,34.9-30.6,47.4
		c-29.9,24.2-73.8,15.3-91.3-18.8c-1-2-2-4.1-3.4-7c-10.6,48-37.3,74.6-88.4,68.6c2.6,0,5.2,0.1,7.8,0c2.7-0.1,5.3-0.4,7.9-0.7
		c31.6-3.3,50.7-21.5,58.9-51.3c8.5-30.9,4.8-60.3-14.9-86.5c-14.5-19.2-33.8-30.8-57.9-33.7c-0.7-0.1-1.4-0.4-2.6-0.7
		c1-6.7,2.1-13.1,3.3-20.9c8.1,2.5,15.8,4.3,23.1,7.3c39.3,16.2,64,54.6,64,98.6c0,21.6,15.2,42.3,36.2,48.5
		c28,8.3,54-4.8,66.8-32.2c-21.4,4.2-39.5-0.6-51.2-20.1c-9.4-15.7-6.5-38.2,6-53.4C439,263.1,460.7,257.8,480.5,264z"/>
	<path class="st0" d="M264.6,182.9c-17.8,18.6-34.3,38.2-48.4,59.8c-13.5,20.8-23.5,43-26.2,67.8c-2.3,20.6,0,40.6,9.3,59.4
		c7.5,15.2,20.7,22.9,36.9,25.4c23.2,3.6,45.7-8.4,56.6-30.2c-24.5,2.5-44.1-4.6-52.4-29.4c-6.1-18.6-1.6-36,12.7-49.6
		c14-13.5,31.3-13.2,49.6-9.7c-1.8,7.1-3.3,13.5-5,20c-10.6-1.5-21.3-4.1-30,3c-4.3,3.5-7.7,8.9-9.7,14.3
		c-4.7,12.8-0.3,25.2,10,31.5c12.6,7.8,24.7,5.6,37.5-6.7c4,2.3,8,4.6,11.9,6.9c-7.2,19-16,36-31.8,49
		c-29.1,23.9-87.3,16.6-100-33.8c-8.9-35.6-2.8-68.5,14.3-100C216.5,230.4,239.2,205.6,264.6,182.9z"/>
	<path class="st0" d="M79.5,258.6c1.1-6.9,2.1-13.2,3.3-20.7c7,2,13.8,3.3,19.9,5.8c38.1,16,60.6,44.3,66.3,85.5
		c3.3,24-0.6,47-12.7,68.1c-15.9,27.7-40.7,38.3-72,34.6c5.2-0.5,10.5-0.7,15.7-1.6c30-4.9,48.1-23.2,55.2-51.8
		c9.5-38,2.2-72-27.9-99.1c-12.1-11-26.6-17.8-43.2-19.8C82.7,259.5,81.4,259.1,79.5,258.6z"/>
	<path class="st0" d="M261.5,155.9c-7.2-7.2-13.8-13.9-20.8-20.9c6.3-6,12.9-12.3,20-19.1c6.4,6.8,12.6,13.4,19.2,20.3
		C273.6,143.1,267.5,149.6,261.5,155.9z"/>
	<path class="st0" d="M440.2,191.1c-6.4,6.9-12.5,13.3-18,19.4c-7-7-13.8-13.8-20.8-20.9c5.8-5.6,12.5-12,19.7-18.8
		C427.5,177.7,433.7,184.3,440.2,191.1z"/>
</g>
</svg>
